<svg xmlns="http://www.w3.org/2000/svg" viewBox="0 0 130.54 116.77"><title>activity</title><g id="Layer_2" data-name="Layer 2"><g id="Layer_1-2" data-name="Layer 1"><path d="M64.79,14.07A35.11,35.11,0,0,1,82.07,1.47a33.34,33.34,0,0,1,19.68.12,39.83,39.83,0,0,1,16.91,10.68,44.1,44.1,0,0,1,11.88,30.24c0,22.19-18.24,36.47-40.91,54.23h0c-7,5.52-14.28,11.28-21.72,17.75l-2.64,2.28-2.64-2.28C55.19,108,47.87,102.26,40.91,96.74h0C18.24,79,0,64.7,0,42.51A44.4,44.4,0,0,1,12,12.15,39.9,39.9,0,0,1,28.44,1.59a31.22,31.22,0,0,1,19.31-.12c6.12,1.92,12,6,17,12.6Zm19.68-4.8c-6,1.8-11.76,6.36-16.2,14.16l-3.48,6.24-3.6-6.24c-4.44-7.8-10.08-12.36-16-14.28A24.11,24.11,0,0,0,31,9.27a31.71,31.71,0,0,0-13.08,8.52A35.74,35.74,0,0,0,8,42.51C8,60.74,25,73.94,45.83,90.38h0c6.24,4.92,12.84,10.08,19.44,15.72,6.6-5.64,13.2-10.8,19.44-15.72h0c20.87-16.44,37.67-29.64,37.67-47.87a35.59,35.59,0,0,0-9.6-24.6A31.65,31.65,0,0,0,99.35,9.39a24.24,24.24,0,0,0-14.88-.12Z"/></g></g></svg>