<svg xmlns="http://www.w3.org/2000/svg" viewBox="0 0 142.18 142.18"><title>add-post</title><g id="Layer_2" data-name="Layer 2"><g id="Layer_1-2" data-name="Layer 1"><path d="M46,0H96.23a46.09,46.09,0,0,1,46,46V96.23a45.89,45.89,0,0,1-45.95,46H46A45.89,45.89,0,0,1,0,96.23V46A46.09,46.09,0,0,1,46,0ZM96.23,8.16H46A37.69,37.69,0,0,0,8.16,46V96.23A37.9,37.9,0,0,0,46,134.14H96.23a38.1,38.1,0,0,0,37.91-37.91V46A37.9,37.9,0,0,0,96.23,8.16Z"/><path d="M67.07,40.55a4,4,0,1,1,8,0v61.08a4,4,0,1,1-8,0Z"/><path d="M40.55,75.23a4.12,4.12,0,0,1-4.08-4.08,4,4,0,0,1,4.08-4.08h61.08a4,4,0,0,1,4.07,4.08,4.11,4.11,0,0,1-4.07,4.08Z"/></g></g></svg>