<svg xmlns="http://www.w3.org/2000/svg" viewBox="0 0 128.14 126.82"><title>home-off</title><g id="Layer_2" data-name="Layer 2"><g id="Layer_1-2" data-name="Layer 1"><path d="M10,118.66c8.29.91,33.35,0,33.35,0a2.06,2.06,0,0,0,1.92-1.92V87.55a19,19,0,0,1,5.48-13.19h0A18.34,18.34,0,0,1,63.8,69a18.56,18.56,0,0,1,13.09,5.4h0a18.86,18.86,0,0,1,5.35,13.19v28.8a1.93,1.93,0,0,0,.6,1.32,2,2,0,0,0,1.43.6h34.05a2.06,2.06,0,0,0,1.92-1.92V66.08L64.24,11l-56,55.08v50.66a1.93,1.93,0,0,0,.6,1.32,2.12,2.12,0,0,0,1.32.6m-9-56.75,60-59L64.07,0,67,2.88l60,59,1.2,1.2v53.63a10.25,10.25,0,0,1-10.08,10.08H84.71a10.59,10.59,0,0,1-7.2-3,10,10,0,0,1-2.88-7.08V114.1h-.72l.6-4.56a1.52,1.52,0,0,1,.12-.72V88a10.53,10.53,0,0,0-3.12-7.44h0a10.43,10.43,0,0,0-14.88,0h0A10.53,10.53,0,0,0,53.51,88v20.87h0c0,.24.12.48.12.72l.6,4.56h-.72v2.64a9.6,9.6,0,0,1-3,7.08,10.08,10.08,0,0,1-7.08,3H10.08a10.08,10.08,0,0,1-7.08-3,9.6,9.6,0,0,1-3-7.08V63.11Z" fill="#231f20"/></g></g></svg>