<svg fill="#000000" xmlns="http://www.w3.org/2000/svg"  viewBox="0 0 48 48" width="48px" height="48px"><path d="M 24 5 C 13.016141 5 4 13.47799 4 24 C 4 29.391285 6.4359964 34.208612 10.214844 37.652344 L 10.142578 41.169922 C 10.086908 43.977866 13.270314 45.853371 15.699219 44.443359 L 19.277344 42.367188 C 20.796228 42.722476 22.355355 43 24 43 C 34.983859 43 44 34.52201 44 24 C 44 13.47799 34.983859 5 24 5 z M 24 8 C 33.450141 8 41 15.19201 41 24 C 41 32.80799 33.450141 40 24 40 C 22.386251 40 20.827941 39.774909 19.335938 39.375 A 1.50015 1.50015 0 0 0 18.195312 39.525391 L 14.193359 41.849609 C 13.656487 42.161669 13.130259 41.851809 13.142578 41.230469 L 13.226562 37.097656 A 1.50015 1.50015 0 0 0 12.691406 35.919922 C 9.1895359 32.974896 7 28.739934 7 24 C 7 15.19201 14.549859 8 24 8 z M 34.074219 18.107422 C 33.819844 18.061172 33.547859 18.110531 33.318359 18.269531 L 26.703125 22.851562 L 23.25 19.814453 L 23.007812 19.601562 L 22.875 19.492188 C 21.841 18.712188 20.369844 18.919125 19.589844 19.953125 L 13.318359 28.269531 L 13.298828 28.292969 C 13.043828 28.631969 13.021391 29.109562 13.275391 29.476562 C 13.593391 29.934562 14.222641 30.048469 14.681641 29.730469 L 21.296875 25.148438 L 24.75 28.1875 L 24.992188 28.400391 L 25.125 28.507812 C 26.159 29.287812 27.630156 29.082828 28.410156 28.048828 L 34.681641 19.732422 L 34.701172 19.707031 C 34.956172 19.368031 34.978609 18.892391 34.724609 18.525391 C 34.565609 18.296391 34.328594 18.153672 34.074219 18.107422 z"/></svg>