<svg xmlns="http://www.w3.org/2000/svg" viewBox="0 0 127.39 127.15"><title>search-off</title><g id="Layer_2" data-name="Layer 2"><g id="Layer_1-2" data-name="Layer 1"><path d="M126.22,120.22a4.07,4.07,0,0,1-5.76,5.76L93.83,99.35a58.69,58.69,0,0,1-15.48,9.59A56.58,56.58,0,0,1,16.56,96.59a56.65,56.65,0,1,1,92.38-18.36,54.11,54.11,0,0,1-9.47,15.24ZM90.83,91a.42.42,0,0,0,.36-.36,50,50,0,0,0,10.32-15.48,49.22,49.22,0,0,0,3.59-18.48,48.47,48.47,0,1,0-29.87,44.76A47.52,47.52,0,0,0,90.83,91Z"/></g></g></svg>